# Blender 3.3.1
# www.blender.org
mtllib bridgeBase.mtl
o bridgeBase
v 0.498103 14.753183 1.000000
v 1.000000 14.754023 1.000000
v -0.500000 14.751505 1.000000
v 0.000000 14.753183 1.000000
v -1.000000 14.754023 -1.000000
v -1.000000 14.753183 1.000000
v 1.000000 14.754861 -1.000000
v -1.000000 15.231505 1.000000
v -1.000000 15.231505 -1.000000
v 1.000000 15.231505 -1.000000
v 1.000000 15.231505 1.000000
v -1.000000 16.616909 4.040759
v -1.000000 16.616909 -4.040759
v 1.000000 16.616909 -4.040759
v 1.000000 16.616909 4.040759
v 1.942426 17.047308 -4.983185
v 1.942426 17.047308 4.983185
v -1.942426 17.047308 4.983185
v -1.942426 17.047308 -5.262003
v 1.942426 16.616909 4.983185
v 1.942426 16.616909 -4.983185
v -1.942426 16.616909 -5.248972
v -1.942426 16.616909 4.983185
v -0.500000 14.754861 -1.000000
v 0.000000 14.754861 -1.000000
v 0.500000 14.754861 -1.000000
v -0.500000 15.231505 -1.000000
v 0.000000 15.231505 -1.000000
v 0.500000 15.231505 -1.000000
v 0.500000 15.231505 1.000000
v 0.000000 15.231505 1.000000
v -0.500000 15.231505 1.000000
v -0.500000 16.616909 -4.040759
v 0.000000 16.616909 -4.040759
v 0.500000 16.616909 -4.040759
v 0.500000 16.616909 4.040759
v 0.000000 16.616909 4.040759
v -0.500000 16.616909 4.040759
v -0.971213 17.047308 -5.192299
v 0.000000 17.047308 -5.122594
v 0.971213 17.047308 -5.052890
v 0.971213 17.047308 4.983185
v 0.000000 17.047308 4.983185
v -0.971213 17.047308 4.983185
v 0.971213 16.616909 4.983185
v 0.000000 16.616909 4.983185
v -0.971213 16.616909 4.983185
v -0.971213 16.616909 -5.182525
v 0.000000 16.616909 -5.116078
v 0.971213 16.616909 -5.049632
v 1.000000 14.754442 -0.069565
v -1.000000 14.753603 0.031850
v -1.000000 15.231505 0.030594
v 1.000000 15.231505 -0.069406
v -1.000000 16.616909 0.030594
v 1.000000 16.616909 -0.069406
v -1.942426 17.047308 0.032393
v 1.942426 17.047308 -0.069406
v 1.942426 16.616909 -0.069406
v -1.942426 16.616909 0.032309
v 1.000000 0.000000 1.000000
v 1.000000 0.000000 -1.000000
v 1.000000 10.337564 -0.999284
v 1.000000 7.000552 -0.998918
v 1.000000 10.237328 1.000000
v 1.000000 7.319041 1.000000
v 1.000000 9.279765 1.000000
v 1.000000 8.307002 1.000000
v 0.333333 0.000000 -1.000000
v 0.333333 0.000000 1.000000
v 0.333333 7.319041 1.000000
v 0.333333 10.237328 1.000000
v 0.333333 7.000552 -0.998918
v 0.650347 10.337564 -0.999284
v 0.333333 8.307002 1.000000
v 0.333333 9.279765 1.000000
v 0.796448 0.000000 1.000000
v 0.796448 7.000552 -0.998918
v 0.796448 10.337564 -0.999284
v 0.796448 0.000000 -1.000000
v 0.796448 7.319041 1.000000
v 0.796448 10.237328 1.000000
v 0.796448 8.307002 1.000000
v 0.796448 9.279765 1.000000
v 0.650347 7.201362 -0.685894
v 0.650347 10.304782 -0.687382
v 0.650347 8.307002 -0.686380
v 0.650347 9.279765 -0.686380
v 0.796448 10.304782 -0.687382
v 0.650347 9.279765 -0.164419
v 0.650347 8.307002 -0.356225
v 0.650347 7.319041 -0.507939
v 0.650347 10.237328 0.033116
v 0.999615 7.319041 -0.507941
v 0.999615 10.237328 0.033110
v 0.999230 8.307002 -0.356225
v 0.999230 9.279765 -0.164419
v 1.000000 0.000000 -0.537942
v 0.333333 0.000000 -0.537942
v 0.796448 0.000000 -0.537942
v 0.000000 0.000000 -1.000000
v 0.000000 0.000000 1.000000
v 0.000000 7.319041 1.000000
v 0.000000 10.237328 1.000000
v 0.000000 7.000552 -0.998918
v 0.000000 10.337564 -0.999284
v 0.000000 8.307002 1.000000
v 0.000000 9.279765 1.000000
v 0.000000 7.201362 -0.685894
v 0.000000 10.304782 -0.687382
v 0.000000 8.307002 -0.686380
v 0.000000 9.279765 -0.686380
v 0.000000 0.000000 -0.537942
v -1.000000 0.000000 1.000000
v -1.000000 0.000000 -1.000000
v -1.000000 10.337564 -0.999284
v -1.000000 7.000552 -0.998918
v -1.000000 10.237328 1.000000
v -1.000000 7.319041 1.000000
v -1.000000 9.279765 1.000000
v -1.000000 8.307002 1.000000
v -0.333333 0.000000 -1.000000
v -0.333333 0.000000 1.000000
v -0.333333 7.319041 1.000000
v -0.333333 10.237328 1.000000
v -0.333333 7.000552 -0.998918
v -0.633333 10.337564 -0.999284
v -0.333333 8.307002 1.000000
v -0.333333 9.279765 1.000000
v -0.796448 0.000000 1.000000
v -0.796448 7.000552 -0.998918
v -0.796448 10.337564 -0.999284
v -0.796448 0.000000 -1.000000
v -0.796448 7.319041 1.000000
v -0.796448 10.237328 1.000000
v -0.796448 8.307002 1.000000
v -0.796448 9.279765 1.000000
v -0.633333 7.201362 -0.685894
v -0.633333 10.304782 -0.687382
v -0.633333 8.307002 -0.686380
v -0.633333 9.279765 -0.686380
v -0.796448 10.304782 -0.687382
v -0.633333 9.279765 -0.164419
v -0.633333 8.307002 -0.356225
v -0.633333 7.319041 -0.507939
v -0.633333 10.237328 0.033116
v -0.999615 7.319041 -0.507941
v -0.999615 10.237328 0.033110
v -0.999230 8.307002 -0.356225
v -0.999230 9.279765 -0.164419
v -1.000000 0.000000 -0.537942
v -0.333333 0.000000 -0.537942
v -0.796448 0.000000 -0.537942
v 1.000000 5.446143 -1.000000
v 1.000000 5.893484 1.000000
v 1.000000 5.002095 1.000000
v 0.333333 5.446143 -1.000000
v 0.333333 5.447789 1.000000
v 0.796448 5.766143 1.000000
v 0.796448 5.129436 1.000000
v 0.796448 5.446143 -1.000000
v 0.999731 5.447789 -0.537941
v 0.000000 5.447790 1.000000
v 0.000000 5.446143 -1.000000
v -1.000000 5.446143 -1.000000
v -1.000000 5.446143 1.000000
v -0.333333 5.446143 -1.000000
v -0.333333 5.446143 1.000000
v -0.796448 5.446143 1.000000
v -0.796448 5.446143 -1.000000
v -0.999667 5.446143 -0.537941
v 1.000000 12.522902 -1.000000
v 1.000000 12.522902 1.000000
v 0.496206 12.522902 1.000000
v 0.500000 12.522902 -1.000000
v 0.796448 12.522902 1.000000
v 0.796448 12.522902 -1.000000
v 0.999872 12.522902 -0.069722
v 0.000000 12.522902 -1.000000
v 0.000000 12.522902 1.000000
v -1.000000 12.522902 -1.000000
v -1.000000 12.866397 1.000000
v -1.000000 12.178028 1.000000
v -0.333333 12.522213 1.000000
v -0.500000 12.522902 -1.000000
v -0.796448 12.762901 1.000000
v -0.796448 12.281525 1.000000
v -0.796448 12.522902 -1.000000
v -0.999807 12.522213 0.033108
v 1.000000 8.793384 1.000000
v 0.333333 8.795510 1.000000
v 0.796448 8.795510 1.000000
v 0.650347 8.795510 -0.686380
v 0.650347 8.793384 -0.260322
v 0.999230 8.955510 -0.228354
v 0.999230 8.631257 -0.292289
v 0.000000 8.795510 -0.686380
v 0.000000 8.795510 1.000000
v -1.000000 8.795510 1.000000
v -0.333333 8.795510 1.000000
v -0.796448 8.795510 1.000000
v -0.633333 8.795510 -0.686380
v -0.633333 8.795510 -0.258354
v -0.999230 8.795510 -0.258354
v -1.000000 7.000552 -0.998918
v -0.796448 7.000552 -0.998918
v -0.999615 7.319041 -0.507941
vn -1.0000 -0.0000 -0.0000
vn -0.0000 -0.0000 1.0000
vn -0.0000 -0.9100 0.4146
vn -0.0000 -0.0000 -1.0000
vn 1.0000 -0.0000 -0.0000
vn -0.0000 -0.9100 -0.4146
vn -0.0000 -1.0000 -0.0000
vn 0.0699 -0.0264 -0.9972
vn 0.0699 -0.0038 -0.9975
vn 0.0699 -0.0113 -0.9975
vn 0.0699 -0.0189 -0.9974
vn 1.0000 -0.0000 -0.0001
vn 1.0000 -0.0000 -0.0002
vn -0.0000 0.0007 -1.0000
vn -0.0000 -0.9945 -0.1045
vn -0.0000 -0.9956 -0.0932
vn -0.0000 -0.0004 -1.0000
vn -0.0000 -0.0010 -1.0000
vn -0.0000 0.1935 -0.9811
vn -0.0000 0.1518 -0.9884
vn -0.0000 0.2020 -0.9794
vn 1.0000 -0.0001 -0.0005
vn 1.0000 0.0001 -0.0006
vn 1.0000 0.0002 -0.0004
vn 0.0094 -0.9951 -0.0985
vn 1.0000 -0.0000 0.0007
vn 1.0000 -0.0000 0.0001
vn -0.0000 0.8417 -0.5400
vn -1.0000 -0.0000 -0.0001
vn -1.0000 -0.0000 -0.0002
vn -0.0000 0.1904 -0.9817
vn -1.0000 -0.0001 -0.0005
vn -1.0000 0.0001 -0.0006
vn -1.0000 0.0002 -0.0004
vn -0.0094 -0.9951 -0.0985
vn -1.0000 -0.0000 0.0008
vn -1.0000 -0.0000 0.0001
vn 1.0000 -0.0000 0.0003
vn -1.0000 -0.0000 0.0004
vn 0.5397 -0.8073 0.2385
vn 0.5397 0.8073 0.2385
vn -0.0000 -0.0003 -1.0000
vn -1.0000 -0.0000 -0.0003
vn 1.0000 -0.0001 0.0003
vn 1.0000 -0.0001 -0.0003
vn -0.4372 -0.8469 0.3028
vn -0.4372 0.8469 0.3028
vn -1.0000 -0.0000 0.0003
vn -0.0000 0.1964 -0.9805
vn 1.0000 -0.0000 -0.0006
vn -0.0039 0.8377 -0.5462
vn 0.0038 0.8377 -0.5462
vn 0.4274 -0.8963 -0.1186
vn 0.4101 0.9049 -0.1138
vt 0.100695 0.866306
vt 0.125960 0.868633
vt 0.050189 0.861411
vt 0.075506 0.863933
vt 0.322244 0.877497
vt 0.420435 0.880775
vt 0.024835 0.859035
vt 0.225698 0.875040
vt 0.022481 0.883299
vt 0.791645 0.408290
vt 0.829080 0.285424
vt 0.419538 0.904101
vt 0.321764 0.900782
vt 0.694447 0.411516
vt 0.654313 0.324085
vt 0.224697 0.898525
vt 0.722260 0.250893
vt 0.124007 0.892686
vt 0.949359 0.475760
vt 0.886736 0.106446
vt 0.546458 0.479953
vt 0.506217 0.391233
vt 0.778274 0.073826
vt 0.436591 0.374475
vt 0.745851 0.001010
vt 0.999867 0.547154
vt 0.962518 0.046270
vt 0.505195 0.544256
vt 0.755553 0.020318
vt 0.456553 0.378794
vt 0.513313 0.527742
vt 0.999867 0.524934
vt 0.955204 0.070234
vt 0.298093 0.877186
vt 0.274035 0.876743
vt 0.249961 0.876009
vt 0.684301 0.389365
vt 0.297619 0.900242
vt 0.674123 0.367201
vt 0.273505 0.899782
vt 0.663910 0.345038
vt 0.249245 0.899222
vt 0.098616 0.890528
vt 0.748865 0.259536
vt 0.073223 0.888185
vt 0.775553 0.268168
vt 0.047844 0.885759
vt 0.802299 0.276797
vt 0.536749 0.457654
vt 0.526652 0.435407
vt 0.516609 0.413250
vt 0.805116 0.081835
vt 0.832268 0.089819
vt 0.859489 0.097988
vt 0.477909 0.509114
vt 0.459224 0.464212
vt 0.444286 0.419249
vt 0.798321 0.000133
vt 0.854116 0.013779
vt 0.908443 0.029796
vt 0.794856 0.025011
vt 0.847542 0.037989
vt 0.901239 0.053785
vt 0.496522 0.498861
vt 0.478808 0.456824
vt 0.463443 0.414132
vt 0.179393 0.872569
vt 0.373158 0.878925
vt 0.743649 0.409938
vt 0.372272 0.902306
vt 0.685243 0.290647
vt 0.177988 0.896421
vt 0.744729 0.477446
vt 0.633762 0.244533
vt 0.744270 0.547154
vt 0.580074 0.199702
vt 0.598499 0.214914
vt 0.744567 0.523000
vt 0.112013 0.100979
vt 0.100010 0.000133
vt 0.227049 0.094989
vt 0.237775 0.688899
vt 0.234292 0.439110
vt 0.153490 0.635700
vt 0.147531 0.475312
vt 0.155553 0.581721
vt 0.152812 0.526132
vt 0.066567 0.004332
vt 0.261514 0.094392
vt 0.077825 0.104552
vt 0.114396 0.477750
vt 0.116718 0.633113
vt 0.260666 0.441169
vt 0.250140 0.687231
vt 0.117529 0.528745
vt 0.118620 0.581233
vt 0.101042 0.102259
vt 0.242017 0.439964
vt 0.244598 0.687985
vt 0.089784 0.001404
vt 0.237498 0.094671
vt 0.136991 0.476138
vt 0.142230 0.634836
vt 0.142112 0.527215
vt 0.144123 0.581539
vt 0.592845 0.583694
vt 0.244817 0.457806
vt 0.436592 0.583694
vt 0.247504 0.674321
vt 0.537184 0.583696
vt 0.488206 0.583685
vt 0.241248 0.676094
vt 0.234418 0.582086
vt 0.488221 0.557403
vt 0.237417 0.518341
vt 0.537189 0.567075
vt 0.586924 0.574732
vt 0.243510 0.466963
vt 0.440016 0.547420
vt 0.236230 0.638228
vt 0.223460 0.464232
vt 0.213620 0.641826
vt 0.220133 0.516124
vt 0.215800 0.582501
vt 0.102887 0.023339
vt 0.203153 0.095333
vt 0.069423 0.027451
vt 0.092640 0.024581
vt 0.049932 0.006423
vt 0.278729 0.094140
vt 0.062414 0.106224
vt 0.097533 0.478548
vt 0.098796 0.631951
vt 0.274638 0.441256
vt 0.275671 0.684351
vt 0.100023 0.529449
vt 0.100683 0.580958
vt 0.592845 0.616436
vt 0.274334 0.456947
vt 0.275257 0.670612
vt 0.436595 0.616434
vt 0.537183 0.616436
vt 0.488204 0.616435
vt 0.052799 0.029485
vt 0.012296 0.112192
vt 0.436325 0.095593
vt 0.000133 0.012588
vt 0.330646 0.093644
vt 0.314010 0.686642
vt 0.321935 0.445267
vt 0.046654 0.628644
vt 0.393360 0.634318
vt 0.046792 0.480506
vt 0.409366 0.479545
vt 0.048718 0.579965
vt 0.395692 0.584541
vt 0.401766 0.532318
vt 0.048559 0.530754
vt 0.033327 0.008495
vt 0.295975 0.093928
vt 0.045684 0.108238
vt 0.080602 0.479225
vt 0.081199 0.630839
vt 0.288648 0.441582
vt 0.300693 0.685639
vt 0.082709 0.529987
vt 0.083075 0.580658
vt 0.022484 0.110996
vt 0.312654 0.445594
vt 0.307005 0.686190
vt 0.010269 0.011342
vt 0.320113 0.093866
vt 0.057121 0.480121
vt 0.057093 0.629342
vt 0.058905 0.530516
vt 0.059094 0.580203
vt 0.592845 0.648321
vt 0.295147 0.456598
vt 0.436591 0.648318
vt 0.302531 0.672607
vt 0.537184 0.648319
vt 0.488205 0.648329
vt 0.309642 0.674086
vt 0.310767 0.578505
vt 0.488219 0.674611
vt 0.537189 0.664940
vt 0.310968 0.522452
vt 0.309238 0.465775
vt 0.586924 0.657283
vt 0.309220 0.465362
vt 0.440014 0.684592
vt 0.311037 0.636381
vt 0.328147 0.466269
vt 0.334510 0.639129
vt 0.329409 0.522018
vt 0.332187 0.577661
vt 0.002960 0.035597
vt 0.354794 0.093611
vt 0.036176 0.031530
vt 0.013099 0.034356
vt 0.230059 0.371514
vt 0.144495 0.411543
vt 0.139448 0.344891
vt 0.262452 0.370566
vt 0.111559 0.380981
vt 0.134826 0.403144
vt 0.130999 0.355075
vt 0.239768 0.371189
vt 0.205177 0.373630
vt 0.094255 0.382186
vt 0.278759 0.370644
vt 0.328883 0.372298
vt 0.042983 0.385832
vt 0.429203 0.384320
vt 0.295314 0.370927
vt 0.077065 0.383354
vt 0.053298 0.385067
vt 0.319217 0.371848
vt 0.353241 0.374618
vt 0.232845 0.770222
vt 0.137605 0.756722
vt 0.111924 0.753762
vt 0.255271 0.771609
vt 0.127227 0.755507
vt 0.242710 0.770900
vt 0.186240 0.763557
vt 0.277006 0.772171
vt 0.086726 0.751050
vt 0.320885 0.771508
vt 0.034223 0.763411
vt 0.424299 0.788952
vt 0.037208 0.728218
vt 0.416308 0.730746
vt 0.069717 0.749288
vt 0.436325 0.757674
vt 0.299082 0.772303
vt 0.045052 0.759179
vt 0.430585 0.773418
vt 0.047157 0.734532
vt 0.426552 0.744035
vt 0.312021 0.771937
vt 0.378582 0.764627
vt 0.155872 0.554159
vt 0.118539 0.554982
vt 0.144135 0.554513
vt 0.512591 0.583691
vt 0.512704 0.562241
vt 0.235343 0.549596
vt 0.217800 0.567445
vt 0.219200 0.531309
vt 0.512588 0.616436
vt 0.100717 0.555230
vt 0.398619 0.558395
vt 0.048894 0.555461
vt 0.083177 0.555364
vt 0.059255 0.555438
vt 0.512590 0.648324
vt 0.512596 0.669873
vt 0.310303 0.549947
vt 0.330679 0.549501
vt 0.307833 0.454667
vt 0.312044 0.445955
vt 0.307680 0.454580
s 0
usemtl bridgeBase
f 53/70/1 9/13/1 5/5/1 52/68/1
f 30/43/2 31/45/2 4/4/2 1/1/2
f 32/47/2 8/9/2 6/7/2 3/3/2
f 11/18/2 30/43/2 1/1/2 2/2/2
f 31/45/2 32/47/2 3/3/2 4/4/2
f 30/44/3 11/17/3 15/23/3 36/52/3
f 24/34/4 5/5/4 9/13/4 27/38/4
f 51/67/5 7/8/5 10/16/5 54/72/5
f 27/37/6 9/14/6 13/21/6 33/49/6
f 54/71/5 10/15/5 14/22/5 56/74/5
f 53/69/1 8/10/1 12/19/1 55/73/1
f 33/49/7 13/21/7 22/31/7 48/64/7
f 36/52/7 15/23/7 20/29/7 45/61/7
f 59/77/5 21/30/5 16/24/5 58/76/5
f 60/78/1 23/32/1 18/26/1 57/75/1
f 45/61/2 20/29/2 17/25/2 42/58/2
f 48/64/8 22/31/8 19/28/8 39/55/8
f 55/73/7 12/19/7 23/32/7 60/78/7
f 56/74/7 14/22/7 21/30/7 59/77/7
f 21/30/9 50/66/9 41/57/9 16/24/9
f 50/66/10 49/65/10 40/56/10 41/57/10
f 49/65/11 48/64/11 39/55/11 40/56/11
f 23/33/2 47/63/2 44/60/2 18/27/2
f 47/63/2 46/62/2 43/59/2 44/60/2
f 46/62/2 45/61/2 42/58/2 43/59/2
f 12/20/7 38/54/7 47/63/7 23/33/7
f 38/54/7 37/53/7 46/62/7 47/63/7
f 37/53/7 36/52/7 45/61/7 46/62/7
f 14/22/7 35/51/7 50/66/7 21/30/7
f 35/51/7 34/50/7 49/65/7 50/66/7
f 34/50/7 33/49/7 48/64/7 49/65/7
f 10/15/6 29/41/6 35/51/6 14/22/6
f 29/41/6 28/39/6 34/50/6 35/51/6
f 28/39/6 27/37/6 33/49/6 34/50/6
f 7/8/4 26/36/4 29/42/4 10/16/4
f 26/36/4 25/35/4 28/40/4 29/42/4
f 25/35/4 24/34/4 27/38/4 28/40/4
f 8/11/3 32/48/3 38/54/3 12/20/3
f 32/48/3 31/46/3 37/53/3 38/54/3
f 31/46/3 30/44/3 36/52/3 37/53/3
f 15/23/7 56/74/7 59/77/7 20/29/7
f 13/21/7 55/73/7 60/78/7 22/31/7
f 22/31/1 60/78/1 57/75/1 19/28/1
f 20/29/5 59/77/5 58/76/5 17/25/5
f 9/14/1 53/69/1 55/73/1 13/21/1
f 11/17/5 54/71/5 56/74/5 15/23/5
f 2/2/5 51/67/5 54/72/5 11/18/5
f 8/12/1 53/70/1 52/68/1 6/6/1
f 177/225/4 26/36/4 7/8/4 172/220/4
f 178/226/12 51/67/12 2/2/12 173/221/12
f 100/128/7 98/125/7 61/79/7 77/97/7
f 162/209/13 94/121/13 66/85/13 155/202/13
f 161/208/14 78/98/14 64/83/14 154/201/14
f 192/245/2 84/105/2 76/96/2 191/244/2
f 81/102/2 83/104/2 75/95/2 71/91/2
f 164/211/14 105/134/14 73/93/14 157/204/14
f 84/105/2 82/103/2 72/92/2 76/96/2
f 159/206/2 81/102/2 71/91/2 158/205/2
f 113/144/7 99/127/7 70/90/7 102/131/7
f 176/224/2 1/1/2 174/222/2
f 179/227/4 25/35/4 26/36/4 175/223/4
f 173/221/2 2/2/2 1/1/2 176/224/2
f 155/202/2 66/85/2 81/102/2 159/206/2
f 67/86/2 65/84/2 82/103/2 84/105/2
f 66/85/2 68/87/2 83/104/2 81/102/2
f 190/243/2 67/86/2 84/105/2 192/245/2
f 106/135/15 74/94/15 86/109/15 110/140/15
f 157/204/14 73/93/14 78/98/14 161/208/14
f 99/127/7 100/128/7 77/97/7 70/90/7
f 175/223/4 26/36/4 177/225/4
f 86/109/16 89/112/16 95/122/16 93/120/16
f 197/251/4 112/143/4 88/111/4 193/246/4
f 109/138/17 111/142/17 87/110/17 85/106/17
f 112/143/18 110/141/18 86/108/18 88/111/18
f 88/111/5 86/108/5 93/119/5 90/114/5
f 74/94/15 79/99/15 89/112/15 86/109/15
f 194/248/19 90/113/19 97/124/19 195/249/19
f 92/118/20 91/115/20 96/123/20 94/121/20
f 90/113/21 93/120/21 95/122/21 97/124/21
f 193/246/5 88/111/5 90/114/5 194/247/5
f 85/106/5 87/110/5 91/116/5 92/117/5
f 67/86/22 97/124/22 95/122/22 65/84/22
f 190/243/23 195/249/23 97/124/23 67/86/23
f 66/85/24 94/121/24 96/123/24 68/87/24
f 63/82/25 95/122/25 89/112/25 79/99/25
f 69/88/7 80/100/7 100/128/7 99/127/7
f 101/129/7 69/88/7 99/127/7 113/144/7
f 154/201/26 64/83/26 94/121/26 162/209/26
f 80/100/7 62/80/7 98/125/7 100/128/7
f 172/220/27 7/8/27 51/67/27 178/226/27
f 174/222/2 1/1/2 4/4/2 180/228/2
f 158/205/2 71/91/2 103/132/2 163/210/2
f 76/96/2 72/92/2 104/133/2 108/137/2
f 73/93/28 105/134/28 109/139/28 85/107/28
f 71/91/2 75/95/2 107/136/2 103/132/2
f 191/244/2 76/96/2 108/137/2 198/252/2
f 188/241/4 181/229/4 5/5/4 24/34/4
f 189/242/29 182/231/29 6/6/29 52/68/29
f 153/200/7 130/168/7 114/145/7 151/197/7
f 171/219/30 166/214/30 119/154/30 147/193/30
f 170/218/14 165/212/14 117/150/14 131/169/14
f 201/256/2 200/255/2 129/167/2 137/176/2
f 134/173/2 124/162/2 128/166/2 136/175/2
f 164/211/14 167/215/14 126/164/14 105/134/14
f 137/176/2 129/167/2 125/163/2 135/174/2
f 169/217/2 168/216/2 124/162/2 134/173/2
f 113/144/7 102/131/7 123/161/7 152/199/7
f 186/237/2 184/234/2 3/3/2
f 179/227/4 185/236/4 24/34/4 25/35/4
f 182/230/2 186/237/2 3/3/2 6/7/2
f 166/213/2 169/217/2 134/173/2 119/153/2
f 120/155/2 137/176/2 135/174/2 118/151/2
f 119/153/2 134/173/2 136/175/2 121/158/2
f 199/254/2 201/256/2 137/176/2 120/155/2
f 106/135/15 110/140/15 139/180/15 127/165/15
f 167/215/14 170/218/14 131/169/14 126/164/14
f 152/199/7 123/161/7 130/168/7 153/200/7
f 185/236/4 188/241/4 24/34/4
f 139/180/16 146/192/16 148/194/16 142/183/16
f 197/251/4 202/257/4 141/182/4 112/143/4
f 109/138/17 138/177/17 140/181/17 111/142/17
f 112/143/18 141/182/18 139/179/18 110/141/18
f 141/182/1 143/185/1 146/191/1 139/179/1
f 127/165/15 139/180/15 142/183/15 132/170/15
f 203/259/31 204/260/31 150/196/31 143/184/31
f 145/188/20 147/193/20 149/195/20 144/187/20
f 143/184/21 150/196/21 148/194/21 146/192/21
f 202/257/1 203/258/1 143/185/1 141/182/1
f 138/177/1 145/189/1 144/186/1 140/181/1
f 120/156/32 118/152/32 148/194/32 150/196/32
f 199/253/33 120/156/33 150/196/33 204/260/33
f 119/154/34 121/157/34 149/195/34 147/193/34
f 116/149/35 132/170/35 142/183/35 148/194/35
f 122/159/7 152/199/7 153/200/7 133/171/7
f 101/129/7 113/144/7 152/199/7 122/159/7
f 165/212/36 171/219/36 147/193/36 117/150/36
f 133/171/7 153/200/7 151/197/7 115/147/7
f 181/229/37 189/242/37 52/68/37 5/5/37
f 184/234/2 180/228/2 4/4/2 3/3/2
f 168/216/2 163/210/2 103/132/2 124/162/2
f 129/167/2 108/137/2 104/133/2 125/163/2
f 126/164/28 138/178/28 109/139/28 105/134/28
f 124/162/2 103/132/2 107/136/2 128/166/2
f 200/255/2 198/252/2 108/137/2 129/167/2
f 62/81/38 154/201/38 162/209/38 98/126/38
f 133/172/4 170/218/4 167/215/4 122/160/4
f 130/168/2 169/217/2 166/213/2 114/145/2
f 123/161/2 168/216/2 169/217/2 130/168/2
f 122/160/4 167/215/4 164/211/4 101/130/4
f 115/148/4 165/212/4 170/218/4 133/172/4
f 114/146/29 166/214/29 171/219/29 151/198/29
f 69/89/4 157/204/4 161/208/4 80/101/4
f 70/90/2 158/205/2 163/210/2 102/131/2
f 151/198/39 171/219/39 165/212/39 115/148/39
f 101/130/4 164/211/4 157/204/4 69/89/4
f 61/79/2 156/203/2 160/207/2 77/97/2
f 77/97/2 160/207/2 158/205/2 70/90/2
f 80/101/4 161/208/4 154/201/4 62/81/4
f 98/126/12 162/209/12 156/203/12 61/79/12
f 158/205/40 162/209/40 155/202/40 159/206/40
f 158/205/41 160/207/41 156/203/41 162/209/41
f 163/210/2 168/216/2 123/161/2 102/131/2
f 132/170/42 188/241/42 185/236/42 127/165/42
f 104/133/2 180/228/2 184/234/2 125/163/2
f 127/165/42 185/236/42 179/227/42 106/135/42
f 118/151/2 135/174/2 187/239/2 183/232/2
f 116/149/42 181/229/42 188/241/42 132/170/42
f 135/174/2 125/163/2 184/234/2 187/239/2
f 148/194/43 118/152/43 183/233/43 189/242/43
f 72/92/2 174/222/2 180/228/2 104/133/2
f 63/82/44 172/220/44 178/226/44 95/122/44
f 74/94/42 175/223/42 177/225/42 79/99/42
f 65/84/2 173/221/2 176/224/2 82/103/2
f 106/135/42 179/227/42 175/223/42 74/94/42
f 82/103/2 176/224/2 174/222/2 72/92/2
f 95/122/45 178/226/45 173/221/45 65/84/45
f 79/99/42 177/225/42 172/220/42 63/82/42
f 182/231/46 189/242/46 184/235/46 186/238/46
f 184/235/47 189/242/47 183/233/47 187/240/47
f 189/242/48 181/229/48 116/149/48 148/194/48
f 121/157/33 199/253/33 204/260/33 149/195/33
f 144/186/1 203/258/1 202/257/1 140/181/1
f 149/195/49 204/260/49 203/259/49 144/187/49
f 140/181/4 202/257/4 197/251/4 111/142/4
f 136/175/2 201/256/2 199/254/2 121/158/2
f 128/166/2 200/255/2 201/256/2 136/175/2
f 75/95/2 191/244/2 198/252/2 107/136/2
f 111/142/4 197/251/4 193/246/4 87/110/4
f 68/87/50 96/123/50 196/250/50 190/243/50
f 91/115/19 194/248/19 196/250/19 96/123/19
f 83/104/2 192/245/2 191/244/2 75/95/2
f 107/136/2 198/252/2 200/255/2 128/166/2
f 87/110/5 193/246/5 194/247/5 91/116/5
f 190/243/2 192/245/2 83/104/2 68/87/2
f 73/93/28 85/107/28 64/83/28 78/98/28
f 85/107/51 92/118/51 94/121/51 64/83/51
f 126/164/28 206/262/28 205/261/28 138/178/28
f 138/178/52 205/261/52 207/263/52 145/190/52
f 195/249/53 190/243/53 194/248/53
f 196/250/54 194/248/54 190/243/54
